<svg width="13" height="12" viewBox="0 0 13 12" fill="none" xmlns="http://www.w3.org/2000/svg">
<path d="M4.71397 8.70206C4.59574 9.28327 4.51899 9.56428 4.07037 9.60027C3.95982 9.60915 3.86979 9.69258 3.85256 9.80213C3.83528 9.91163 3.89531 10.0187 3.99778 10.0612C4.02661 10.0731 4.71277 10.3535 5.51443 10.3535C5.51455 10.3535 5.51463 10.3535 5.51471 10.3535C6.07336 10.3535 6.55258 10.2181 6.93901 9.95103C7.39696 9.63459 7.71268 9.13937 7.88054 8.47969L6.33785 6.92468C5.03413 7.1357 4.84943 8.03607 4.71397 8.70206Z" fill="#212F36"/>
<path d="M12.9081 1.87271C12.8666 1.83088 12.7927 1.78101 12.6759 1.78101C12.539 1.78101 12.1753 1.78101 9.96665 3.66045C8.94641 4.52859 7.77012 5.60257 6.83447 6.5165L8.29841 7.99208C9.26073 6.99184 10.3833 5.73816 11.2761 4.66217C11.8399 3.98281 12.2734 3.42224 12.5646 2.9961C12.9503 2.43165 13.1192 2.08545 12.9081 1.87271Z" fill="#212F36"/>
<path d="M7.3029 10.4774C6.80748 10.8197 6.20587 10.9933 5.51448 10.9933C4.60447 10.9932 3.83793 10.6874 3.75286 10.6522C3.3759 10.496 3.15701 10.1054 3.22052 9.7024C3.28271 9.30761 3.59899 9.00757 3.99407 8.96465C4.0285 8.86183 4.06658 8.67453 4.08697 8.57438C4.16209 8.20523 4.26491 7.69957 4.58123 7.24951C4.92667 6.75809 5.44737 6.443 6.13108 6.31098C6.52347 5.92155 6.97118 5.49336 7.43836 5.05882C7.20219 5.00758 6.99102 4.85376 6.87775 4.62111C6.68277 4.22036 6.85283 3.7383 7.25706 3.54544C7.66233 3.35211 8.14843 3.52097 8.34313 3.92232C8.38156 4.00143 8.40532 4.08362 8.4164 4.16613C8.80387 3.81909 9.18866 3.48225 9.55194 3.17313C9.5541 3.17129 9.55614 3.16953 9.55834 3.16769C9.15003 2.38635 8.5645 1.69407 7.85107 1.16402C6.82664 0.40287 5.60679 0.00031996 4.32351 0C4.32311 0 4.32283 0 4.32251 0C3.45645 0 2.4037 0.302603 1.57497 0.789863C0.559171 1.38707 -0.000199922 2.18577 5.35998e-08 3.03874C0.000320014 4.06854 0.581128 4.49928 1.04783 4.84536C1.42838 5.12761 1.72895 5.3505 1.72911 5.839C1.72923 6.32746 1.42882 6.55015 1.04847 6.83212C0.581928 7.17799 0.0012399 7.6085 0.00155986 8.63841C0.00179983 9.49127 0.561531 10.2902 1.57761 10.8879C2.40694 11.3758 3.46025 11.679 4.32647 11.6792C4.32706 11.6792 4.32759 11.6792 4.32815 11.6792C5.90015 11.6792 7.37793 11.0725 8.48939 9.97065C9.32277 9.14455 9.87546 8.11424 10.1001 6.99334C9.5421 7.6121 8.98037 8.21291 8.47779 8.726C8.26462 9.49695 7.86995 10.0856 7.3029 10.4774ZM4.44161 2.42334C4.54152 1.98855 4.97754 1.71715 5.41565 1.81674C5.85316 1.91584 6.12728 2.34795 6.02809 2.78214C5.92815 3.21584 5.49188 3.48729 5.05374 3.38822C4.61587 3.28967 4.34162 2.85705 4.44161 2.42334ZM1.80194 3.90512C1.52177 3.55652 1.57936 3.04918 1.93056 2.7717C2.28172 2.49473 2.79329 2.55152 3.07398 2.89948C3.35355 3.24756 3.29575 3.7549 2.94484 4.03294C2.59444 4.31051 2.08206 4.25311 1.80194 3.90512ZM2.22956 9.2251C1.87817 8.94738 1.82037 8.44004 2.10054 8.09156C2.38051 7.74376 2.89228 7.68673 3.24364 7.96438C3.59472 8.24206 3.65255 8.74944 3.37262 9.09732C3.0927 9.44579 2.58088 9.50279 2.22956 9.2251Z" fill="#212F36"/>
</svg>
