<svg width="14" height="15" viewBox="0 0 14 15" fill="none" xmlns="http://www.w3.org/2000/svg">
<path d="M7.08537 7.71359C7.25058 7.57151 7.48347 7.42034 7.75124 7.28336C8.23318 7.0344 8.82427 6.82184 9.3497 6.67578C9.6124 6.60276 9.85945 6.54563 10.0671 6.50783C10.2737 6.46947 10.445 6.45159 10.5359 6.45215H10.5384L10.7248 6.45725L10.8506 6.3024C11.2886 5.76361 11.7165 5.46863 12.0292 5.30664C12.1853 5.22565 12.3126 5.17818 12.397 5.15179C12.4395 5.13871 12.4708 5.13075 12.49 5.1265C12.4991 5.12419 12.5056 5.12306 12.5087 5.12223L13.0902 5.03043L12.8108 4.44731C12.3632 3.51465 11.6039 2.52914 10.5536 1.76557C9.50376 1.00286 8.15842 0.468901 6.56753 0.469455C6.38616 0.469455 6.20074 0.479114 6.01284 0.493326L5.94461 0L5.43843 0.089209L5.50714 0.581396C3.85312 1.04233 2.60326 1.99176 1.72725 3.09408C1.26902 3.67009 0.911367 4.28701 0.644109 4.89942C0.377398 5.51182 0.201059 6.11992 0.107598 6.68317L0 7.33452L0.576898 7.22254C0.578949 7.22227 0.648648 7.21033 0.771914 7.21033C1.07759 7.21088 1.70754 7.28081 2.47797 7.7761L2.63711 7.87811L2.81039 7.81332C2.87202 7.79031 2.96852 7.76244 3.08675 7.7366C3.44392 7.65761 3.99812 7.59421 4.59225 7.59479C5.1919 7.59393 5.83806 7.65958 6.37457 7.81898L7.13841 13.3095H1.06496V14.1159H13.9702V13.3095H7.86387L7.08537 7.71359ZM4.15674 2.61041C3.54599 3.60641 3.12058 4.68827 2.84375 5.56978C2.70482 6.01081 2.60378 6.40158 2.53559 6.7079C2.53105 6.72722 2.52752 6.74571 2.52345 6.76447C1.92582 6.44763 1.40345 6.33365 1.03212 6.3004C1.11699 5.97986 1.23216 5.64398 1.37971 5.30523C1.73283 4.49564 2.26986 3.6704 3.01399 2.97672C3.48234 2.54024 4.03247 2.15486 4.67409 1.85509C4.48867 2.0978 4.3164 2.35096 4.15674 2.61041ZM6.85196 6.77807L6.10731 1.42654C6.6797 1.67467 7.22025 2.04092 7.71181 2.46721C8.51457 3.1623 9.18802 4.01139 9.67097 4.7258C9.88113 5.03695 10.0554 5.32258 10.1888 5.55757C10.1787 5.55898 10.1686 5.56012 10.158 5.56156C9.91197 5.59651 9.61595 5.65788 9.29261 5.74315C8.80813 5.87075 8.26604 6.05089 7.76185 6.27625C7.50977 6.38909 7.26775 6.51327 7.0455 6.65025C6.97875 6.69172 6.91461 6.7346 6.85196 6.77807Z" fill="#212F36"/>
<path d="M10.7415 10.8977H9.39062V11.4737H10.7415V10.8977Z" fill="#212F36"/>
<path d="M13.9998 10.8977H12.6489V11.4737H13.9998V10.8977Z" fill="#212F36"/>
<path d="M12.3314 8.70056H10.9805V9.27657H12.3314V8.70056Z" fill="#212F36"/>
<path d="M3.92904 10.9009L3.91895 11.4772L5.26984 11.5073L5.27995 10.9313L3.92904 10.9009Z" fill="#212F36"/>
<path d="M2.29967 8.66699L2.28955 9.24297L3.63995 9.27312L3.65059 8.69708L2.29967 8.66699Z" fill="#212F36"/>
</svg>
