<svg width="15" height="12" viewBox="0 0 15 12" fill="none" xmlns="http://www.w3.org/2000/svg">
<path d="M11.9404 10.1168H12.7425C13.2947 10.1168 13.7425 9.6691 13.7425 9.1168V6.58194C13.7425 6.02965 13.2947 5.58194 12.7425 5.58194H12.1904V2C12.1904 1.44772 11.7427 1 11.1904 1H2C1.44772 1 1 1.44772 1 2V9.2591C1 9.7328 1.38399 10.1168 1.85767 10.1168H2.31543" fill="#D9D9D9"/>
<path d="M11.9404 10.1168H12.7425C13.2947 10.1168 13.7425 9.6691 13.7425 9.1168V6.58194C13.7425 6.02965 13.2947 5.58194 12.7425 5.58194H12.1904V2C12.1904 1.44772 11.7427 1 11.1904 1H2C1.44772 1 1 1.44772 1 2V9.2591C1 9.7328 1.38399 10.1168 1.85767 10.1168H2.31543" stroke="#6A6A6A" stroke-linecap="round" stroke-linejoin="round"/>
<path d="M12.1906 2.8335H1.00098" stroke="#6A6A6A" stroke-linecap="round" stroke-linejoin="round"/>
<path d="M12.1906 5.58179H1.00098" stroke="#6A6A6A" stroke-linecap="round" stroke-linejoin="round"/>
<path d="M4.7793 2.8335V5.57807" stroke="#6A6A6A" stroke-linecap="round" stroke-linejoin="round"/>
<path d="M8.34668 2.8335V5.57807" stroke="#6A6A6A" stroke-linecap="round" stroke-linejoin="round"/>
<path d="M3.70557 11.499C4.47656 11.499 5.10157 10.874 5.10157 10.103C5.10157 9.33204 4.47656 8.70703 3.70557 8.70703C2.93458 8.70703 2.30957 9.33204 2.30957 10.103C2.30957 10.874 2.93458 11.499 3.70557 11.499Z" fill="#D9D9D9" stroke="#6A6A6A" stroke-linecap="round" stroke-linejoin="round"/>
<path d="M10.5454 11.499C11.3164 11.499 11.9414 10.874 11.9414 10.103C11.9414 9.33204 11.3164 8.70703 10.5454 8.70703C9.77442 8.70703 9.14941 9.33204 9.14941 10.103C9.14941 10.874 9.77442 11.499 10.5454 11.499Z" fill="#D9D9D9" stroke="#6A6A6A" stroke-linecap="round" stroke-linejoin="round"/>
<path d="M5.10205 10.1028H7.12042H9.14965" stroke="#6A6A6A" stroke-linecap="round" stroke-linejoin="round"/>
</svg>
