<svg width="12" height="11" viewBox="0 0 12 11" fill="none" xmlns="http://www.w3.org/2000/svg">
<path d="M9.13043 0.652222H1.82609V7.6957C1.82609 8.26961 2.29565 8.73918 2.86957 8.73918H8.08696C8.66087 8.73918 9.13043 8.26961 9.13043 7.6957V6.39135C10.7155 6.39135 12 5.10657 12 3.52179C12 1.937 10.7155 0.652222 9.13043 0.652222ZM9.13043 5.087V1.95657C9.99496 1.95657 10.6957 2.65727 10.6957 3.52179C10.6957 4.38605 9.99496 5.087 9.13043 5.087ZM0 9.26092V9.86118C0 10.3558 0.539739 10.5653 1.2 10.5653H10.8C11.46 10.5653 12 10.3558 12 9.86118V9.26092H0Z" fill="#212F36"/>
</svg>
