<svg width="31" height="42" viewBox="0 0 31 42" fill="none" xmlns="http://www.w3.org/2000/svg">
<path d="M14.5361 38.5091C14.8062 39.4875 16.1938 39.4875 16.4639 38.5091L19.9135 26.0162C20.0894 25.3793 19.6103 24.75 18.9496 24.75H12.0504C11.3897 24.75 10.9106 25.3793 11.0865 26.0162L14.5361 38.5091Z" fill="#212F36"/>
<circle cx="15.5" cy="15.5" r="15.5" fill="#212F36"/>
<circle cx="15.5" cy="15.5" r="12.5" fill="white"/>
<path d="M14.1818 7H9.09091C8.47273 7 8 7.47273 8 8.09091V22.6364C8 22.8182 8.18182 23 8.36364 23H9.81818C10.0364 23 10.1818 22.8545 10.1818 22.6364V20.4545C10.1818 20.2364 10.3273 20.0909 10.5455 20.0909H12.7273C12.9455 20.0909 13.0909 20.2364 13.0909 20.4545V22.6364C13.0909 22.8545 13.2364 23 13.4545 23H14.5455C14.9455 23 15.2727 22.6727 15.2727 22.2727V8.09091C15.2727 7.47273 14.8 7 14.1818 7ZM10.9091 18.4545C10.9091 18.5636 10.8364 18.6364 10.7273 18.6364H9.63636C9.52727 18.6364 9.45455 18.5636 9.45455 18.4545V16.6364C9.45455 16.5273 9.52727 16.4545 9.63636 16.4545H10.7273C10.8364 16.4545 10.9091 16.5273 10.9091 16.6364V18.4545ZM10.9091 14.8182C10.9091 14.9273 10.8364 15 10.7273 15H9.63636C9.52727 15 9.45455 14.9273 9.45455 14.8182V13C9.45455 12.8909 9.52727 12.8182 9.63636 12.8182H10.7273C10.8364 12.8182 10.9091 12.8909 10.9091 13V14.8182ZM10.9091 11.1818C10.9091 11.2909 10.8364 11.3636 10.7273 11.3636H9.63636C9.52727 11.3636 9.45455 11.2909 9.45455 11.1818V9.36364C9.45455 9.25455 9.52727 9.18182 9.63636 9.18182H10.7273C10.8364 9.18182 10.9091 9.25455 10.9091 9.36364V11.1818ZM13.8182 18.4545C13.8182 18.5636 13.7455 18.6364 13.6364 18.6364H12.5455C12.4364 18.6364 12.3636 18.5636 12.3636 18.4545V16.6364C12.3636 16.5273 12.4364 16.4545 12.5455 16.4545H13.6364C13.7455 16.4545 13.8182 16.5273 13.8182 16.6364V18.4545ZM13.8182 14.8182C13.8182 14.9273 13.7455 15 13.6364 15H12.5455C12.4364 15 12.3636 14.9273 12.3636 14.8182V13C12.3636 12.8909 12.4364 12.8182 12.5455 12.8182H13.6364C13.7455 12.8182 13.8182 12.8909 13.8182 13V14.8182ZM13.8182 11.1818C13.8182 11.2909 13.7455 11.3636 13.6364 11.3636H12.5455C12.4364 11.3636 12.3636 11.2909 12.3636 11.1818V9.36364C12.3636 9.25455 12.4364 9.18182 12.5455 9.18182H13.6364C13.7455 9.18182 13.8182 9.25455 13.8182 9.36364V11.1818Z" fill="#212F36"/>
<path d="M22.9091 10.6362H17.8182C17.2 10.6362 16.7273 11.109 16.7273 11.7271V22.6362C16.7273 22.818 16.9091 22.9999 17.0909 22.9999H18.5455C18.7637 22.9999 18.9091 22.8544 18.9091 22.6362V20.4544C18.9091 20.2362 19.0546 20.0908 19.2727 20.0908H21.4546C21.6727 20.0908 21.8182 20.2362 21.8182 20.4544V22.6362C21.8182 22.8544 21.9637 22.9999 22.1818 22.9999H23.2727C23.6727 22.9999 24 22.6726 24 22.2726V11.7271C24 11.109 23.5273 10.6362 22.9091 10.6362ZM19.6364 18.4544C19.6364 18.5635 19.5637 18.6362 19.4546 18.6362H18.3637C18.2546 18.6362 18.1818 18.5635 18.1818 18.4544V16.6362C18.1818 16.5271 18.2546 16.4544 18.3637 16.4544H19.4546C19.5637 16.4544 19.6364 16.5271 19.6364 16.6362V18.4544ZM19.6364 14.818C19.6364 14.9271 19.5637 14.9999 19.4546 14.9999H18.3637C18.2546 14.9999 18.1818 14.9271 18.1818 14.818V12.9999C18.1818 12.8908 18.2546 12.818 18.3637 12.818H19.4546C19.5637 12.818 19.6364 12.8908 19.6364 12.9999V14.818ZM22.5455 18.4544C22.5455 18.5635 22.4727 18.6362 22.3637 18.6362H21.2727C21.1637 18.6362 21.0909 18.5635 21.0909 18.4544V16.6362C21.0909 16.5271 21.1637 16.4544 21.2727 16.4544H22.3637C22.4727 16.4544 22.5455 16.5271 22.5455 16.6362V18.4544ZM22.5455 14.818C22.5455 14.9271 22.4727 14.9999 22.3637 14.9999H21.2727C21.1637 14.9999 21.0909 14.9271 21.0909 14.818V12.9999C21.0909 12.8908 21.1637 12.818 21.2727 12.818H22.3637C22.4727 12.818 22.5455 12.8908 22.5455 12.9999V14.818Z" fill="#212F36"/>
</svg>
