<svg width="16" height="16" viewBox="0 0 16 16" fill="none" xmlns="http://www.w3.org/2000/svg">
<path d="M8 15C12.0833 15 15 13.6667 15 10.6989C15 7.47312 13.25 5.32258 9.75 3.70968L11.1267 2.07526C11.1966 1.96804 11.2345 1.84566 11.2366 1.72056C11.2387 1.59545 11.2049 1.47207 11.1385 1.3629C11.0722 1.25373 10.9758 1.16267 10.8589 1.09894C10.7421 1.03521 10.6091 1.00107 10.4733 1H5.52667C5.39091 1.00107 5.25789 1.03521 5.14107 1.09894C5.02424 1.16267 4.92778 1.25373 4.86146 1.3629C4.79512 1.47207 4.76129 1.59545 4.76337 1.72056C4.76546 1.84566 4.80339 1.96804 4.87333 2.07526L6.25 3.72043C2.75 5.34408 1 7.49462 1 10.7204C1 13.6667 3.91667 15 8 15Z" fill="#212F36" stroke="white" stroke-linecap="round" stroke-linejoin="round"/>
</svg>
