<svg width="16" height="16" viewBox="0 0 16 16" fill="none" xmlns="http://www.w3.org/2000/svg">
<path d="M8 15C12.0833 15 15 13.6667 15 10.6989C15 7.47311 13.25 5.32258 9.75 3.70968L11.1267 2.07526C11.1966 1.96804 11.2345 1.84566 11.2366 1.72056C11.2387 1.59545 11.2049 1.47207 11.1385 1.3629C11.0722 1.25373 10.9758 1.16267 10.8589 1.09894C10.7421 1.03521 10.6091 1.00107 10.4733 1H5.52667C5.39091 1.00107 5.25789 1.03521 5.14107 1.09894C5.02424 1.16267 4.92778 1.25373 4.86146 1.3629C4.79512 1.47207 4.76129 1.59545 4.76337 1.72056C4.76546 1.84566 4.80339 1.96804 4.87333 2.07526L6.25 3.72043C2.75 5.34408 1 7.49462 1 10.7204C1 13.6667 3.91667 15 8 15Z" fill="#212F36" stroke="white" stroke-linecap="round" stroke-linejoin="round"/>
<path d="M9.61341 7.79096C9.55792 7.64605 9.4723 7.51429 9.3635 7.40207C9.13208 7.16339 8.79577 7.01318 8.42144 7.01318H7.44314C6.82005 7.01318 6.31494 7.47944 6.31494 8.05459C6.31494 8.54399 6.68411 8.96736 7.20205 9.07195L8.69152 9.3727C9.27176 9.48987 9.68534 9.9645 9.68534 10.5128C9.68534 11.1571 9.11947 11.6799 8.42144 11.6799H7.57884C7.02853 11.6799 6.56037 11.3552 6.38687 10.9021" fill="#212F36"/>
<path d="M9.61341 7.79096C9.55792 7.64605 9.4723 7.51429 9.3635 7.40207C9.13208 7.16339 8.79577 7.01318 8.42144 7.01318H7.44314C6.82005 7.01318 6.31494 7.47944 6.31494 8.05459C6.31494 8.54399 6.68411 8.96736 7.20205 9.07195L8.69152 9.3727C9.27176 9.48987 9.68534 9.9645 9.68534 10.5128C9.68534 11.1571 9.11947 11.6799 8.42144 11.6799H7.57884C7.02853 11.6799 6.56037 11.3552 6.38687 10.9021" stroke="white" stroke-linecap="round" stroke-linejoin="round"/>
<path d="M8 7.01287V5.84619V7.01287Z" fill="#212F36"/>
<path d="M8 7.01287V5.84619" stroke="white" stroke-linecap="round" stroke-linejoin="round"/>
<path d="M8 12.8464V11.6797V12.8464Z" fill="#212F36"/>
<path d="M8 12.8464V11.6797" stroke="white" stroke-linecap="round" stroke-linejoin="round"/>
</svg>
