<svg width="15" height="12" viewBox="0 0 15 12" fill="none" xmlns="http://www.w3.org/2000/svg">
<path d="M14.1817 8.59672V9.15892H11.8269L8.93642 6.26842L14.5997 4.43757C14.6652 4.41656 14.7259 4.38278 14.7782 4.3382C14.8306 4.29361 14.8736 4.2391 14.9048 4.1778C14.936 4.11651 14.9548 4.04964 14.96 3.98106C14.9652 3.91248 14.9568 3.84355 14.9352 3.77823L13.8314 0.363792C13.7883 0.231231 13.6944 0.121175 13.5702 0.0577289C13.4461 -0.00571715 13.3019 -0.0173815 13.1692 0.0252909L0.347331 4.17855C0.26308 4.20556 0.187041 4.25347 0.126307 4.31781C0.0655719 4.38215 0.0221192 4.46082 0 4.54648L5.22174 7.48997L7.62657 6.70994L11.3265 10.3981H14.1817V10.7837C14.1808 11.0177 14.2623 11.2444 14.4119 11.4242C14.5616 11.604 14.7698 11.7253 15 11.7669V7.61948C14.7705 7.66029 14.5628 7.78059 14.4131 7.95928C14.2635 8.13797 14.1816 8.36365 14.1817 8.59672ZM8.78336 2.50959C8.73038 2.3477 8.78336 2.18875 8.87461 2.15637L12.5922 0.955432C12.6953 0.923054 12.8189 1.02608 12.8866 1.18502C12.9543 1.34397 12.8866 1.50586 12.7953 1.53824L9.06299 2.73918C8.97174 2.77451 8.83634 2.66854 8.78336 2.50959Z" fill="#212F36"/>
</svg>
