<svg width="11" height="15" viewBox="0 0 11 15" fill="none" xmlns="http://www.w3.org/2000/svg">
<path d="M5.60793 3.21293C6.49516 3.21293 7.2144 2.49369 7.2144 1.60647C7.2144 0.719239 6.49516 0 5.60793 0C4.7207 0 4.00146 0.719239 4.00146 1.60647C4.00146 2.49369 4.7207 3.21293 5.60793 3.21293Z" fill="#212F36"/>
<path d="M10.3778 3.39809L6.16993 3.38593C6.09314 3.3554 6.01544 3.33015 5.93843 3.31201L5.58872 3.61283L5.22524 3.31545L5.22041 3.31614C5.11081 3.34403 5.00005 3.38524 4.89285 3.4378L0.622182 3.4479C0.27775 3.44871 -0.000801672 3.72863 1.73354e-06 4.07307C0.000919911 4.41704 0.279816 4.69525 0.623674 4.69525C0.624248 4.69525 0.624707 4.69525 0.625281 4.69525L4.11642 4.68698L4.1458 8.1049C4.14615 8.13944 4.14971 8.17261 4.15303 8.2059L0.870549 12.8997C0.637332 13.2333 0.71859 13.6928 1.05212 13.926C1.18078 14.016 1.32803 14.0592 1.47391 14.0592C1.70632 14.0592 1.93529 13.9494 2.07864 13.7445L5.1978 9.28464C5.32428 9.31712 5.45386 9.33503 5.58252 9.33801L5.58436 13.6043C5.58459 14.0113 5.91456 14.341 6.32142 14.341H6.32177C6.72887 14.3409 7.05872 14.0108 7.05849 13.6036L7.05643 8.44646C7.05643 8.42637 7.05482 8.40675 7.05344 8.38712C7.07972 8.29106 7.09522 8.1888 7.0943 8.07942L7.06434 4.63591L10.3745 4.64544C10.3749 4.64544 10.3756 4.64544 10.3763 4.64544C10.7197 4.64544 10.999 4.36734 11 4.0236C11.0008 3.67917 10.7222 3.39912 10.3778 3.39809Z" fill="#212F36"/>
</svg>
