<svg width="31" height="42" viewBox="0 0 31 42" fill="none" xmlns="http://www.w3.org/2000/svg">
<path d="M14.5361 38.5091C14.8062 39.4875 16.1938 39.4875 16.4639 38.5091L19.9135 26.0162C20.0894 25.3793 19.6103 24.75 18.9496 24.75H12.0504C11.3897 24.75 10.9106 25.3793 11.0865 26.0162L14.5361 38.5091Z" fill="#212F36"/>
<circle cx="15.5" cy="15.5" r="15.5" fill="#212F36"/>
<circle cx="15.5" cy="15.5" r="12.5" fill="white"/>
<path d="M12.7857 22V19.3975C11.1204 18.4342 10 16.6336 10 14.5714C10 11.4944 12.4944 9 15.5714 9C17.6336 9 19.4342 10.1204 20.3975 11.7857" stroke="black" stroke-linecap="round" stroke-linejoin="round"/>
<path d="M18.3572 22.0001V19.6787H20.2143C20.7272 19.6787 21.1429 19.263 21.1429 18.7501V16.4287" stroke="black" stroke-linecap="round" stroke-linejoin="round"/>
<path d="M15.1061 14.1072H10.0181" stroke="black" stroke-linecap="round" stroke-linejoin="round"/>
<path d="M15.1072 14.1071C15.1072 12.825 16.1465 11.7856 17.4286 11.7856H22C22.5523 11.7856 23 12.2334 23 12.7856V15.4285C23 15.9808 22.5523 16.4285 22 16.4285H17.4286C16.1465 16.4285 15.1072 15.3892 15.1072 14.1071Z" fill="#D9D9D9" stroke="black" stroke-linecap="round" stroke-linejoin="round"/>
<path d="M18.8213 11.7856V16.4285" stroke="black" stroke-linecap="round" stroke-linejoin="round"/>
</svg>
