<svg width="31" height="42" viewBox="0 0 31 42" fill="none" xmlns="http://www.w3.org/2000/svg">
<path d="M14.5361 38.5091C14.8062 39.4875 16.1938 39.4875 16.4639 38.5091L19.9135 26.0162C20.0894 25.3793 19.6103 24.75 18.9496 24.75H12.0504C11.3897 24.75 10.9106 25.3793 11.0865 26.0162L14.5361 38.5091Z" fill="#212F36"/>
<circle cx="15.5" cy="15.5" r="15.5" fill="#212F36"/>
<circle cx="15.5" cy="15.5" r="12.5" fill="white"/>
<path d="M16.0047 9.32722L17.5985 12.6824C17.6347 12.7676 17.6917 12.8413 17.7639 12.8964C17.836 12.9514 17.9206 12.9857 18.0094 12.996L21.5277 13.5395C21.6296 13.5532 21.7257 13.5968 21.8047 13.6652C21.8836 13.7336 21.9424 13.8241 21.9739 13.926C22.0054 14.028 22.0084 14.1372 21.9827 14.2408C21.957 14.3445 21.9035 14.4384 21.8284 14.5116L19.2924 17.1351C19.2278 17.1982 19.1792 17.2771 19.1512 17.3647C19.1231 17.4523 19.1166 17.5459 19.1321 17.6368L19.7435 21.3264C19.7612 21.4325 19.75 21.5415 19.7112 21.6413C19.6724 21.741 19.6076 21.8273 19.524 21.8906C19.4405 21.9537 19.3416 21.9911 19.2386 21.9986C19.1357 22.006 19.0327 21.9833 18.9416 21.9327L15.7742 20.1871C15.6931 20.1456 15.6039 20.1241 15.5136 20.1241C15.4232 20.1241 15.3341 20.1456 15.2529 20.1871L12.0855 21.9327C11.9943 21.9833 11.8915 22.006 11.7885 21.9986C11.6856 21.9911 11.5867 21.9537 11.5031 21.8906C11.4196 21.8273 11.3547 21.741 11.3159 21.6413C11.2771 21.5415 11.2659 21.4325 11.2836 21.3264L11.895 17.595C11.9105 17.5041 11.904 17.4105 11.876 17.3229C11.848 17.2353 11.7994 17.1564 11.7346 17.0933L9.1686 14.5116C9.09268 14.4364 9.03929 14.3399 9.0149 14.2338C8.99051 14.1276 8.99616 14.0164 9.03116 13.9135C9.06617 13.8106 9.12903 13.7205 9.21213 13.6542C9.29524 13.5878 9.39501 13.548 9.49938 13.5395L13.0177 12.996C13.1065 12.9857 13.1912 12.9514 13.2633 12.8964C13.3354 12.8413 13.3924 12.7676 13.4286 12.6824L15.0224 9.32722C15.0658 9.2295 15.1351 9.14677 15.2221 9.08879C15.3092 9.03081 15.4103 9 15.5136 9C15.6168 9 15.718 9.03081 15.805 9.08879C15.892 9.14677 15.9613 9.2295 16.0047 9.32722Z" fill="#FFD600" stroke="black" stroke-linecap="round" stroke-linejoin="round"/>
</svg>
