<svg width="13" height="12" viewBox="0 0 13 12" fill="none" xmlns="http://www.w3.org/2000/svg">
<path d="M7.88235 6.89352C7.83782 7.46812 7.55606 8.03475 7.04399 8.57964C7.68832 9.0813 8.34411 9.37799 8.35087 9.38106L8.41847 9.41139L8.1348 10.0558L8.06709 10.0256C7.98334 9.98811 7.24204 9.64887 6.5218 9.06242C5.80166 9.64887 5.06032 9.98806 4.97651 10.0256L4.90886 10.0558L4.62524 9.41144L4.69274 9.38106C4.6995 9.37799 5.35673 9.0801 5.99967 8.57959C5.6354 8.19176 5.38589 7.78905 5.2576 7.38139L5.227 7.28422H5.96344L5.98259 7.32963C6.09251 7.58996 6.27379 7.85319 6.5218 8.11284C6.91172 7.70482 7.13259 7.29535 7.17945 6.89357H4.56295V6.18845H6.14814V5.70308H6.84753V6.18845H8.43271V6.89357L7.88235 6.89352ZM10.9616 0H2.03409V0.884392H10.9616V0ZM13 3.69364H12.6657C12.4763 3.69364 12.2874 3.67304 12.1024 3.6322C11.1059 3.38951 10.4402 2.44217 10.5436 1.41383H2.43681L2.43712 1.41706C2.54192 2.46147 1.85378 3.41927 0.836764 3.64453C0.68933 3.67715 0.538852 3.69364 0.387858 3.69364H0V4.57803H1.40369C1.09582 4.80064 0.895025 5.16422 0.895025 5.57526C0.895025 6.12582 1.25476 6.59163 1.75021 6.74687V10.8728H0.614968V11.6532H12.3807V10.8728H11.2455V6.71997C11.7433 6.56619 12.1054 6.09929 12.1054 5.54696C12.1054 5.15288 11.9209 4.80246 11.6344 4.57803H13V3.69364ZM2.47272 10.8728V6.74718C2.96859 6.59221 3.32879 6.12613 3.32879 5.57531C3.32879 5.16422 3.12799 4.80064 2.82012 4.57808H10.1427C9.85621 4.80251 9.67168 5.15294 9.67168 5.54701C9.67168 6.09611 10.0296 6.56089 10.523 6.71732V10.8728H2.47272Z" fill="#212F36"/>
</svg>
