<svg width="18" height="8" viewBox="0 0 18 8" fill="none" xmlns="http://www.w3.org/2000/svg">
<path d="M4.02229 1.10681C2.1035 1.71347 0.650875 2.80814 0 3.76442C0.656602 4.73006 2.1295 5.83462 4.07327 6.43815C4.56129 5.68115 4.84485 4.78104 4.84485 3.8128C4.84485 2.8102 4.54204 1.87996 4.02229 1.10681ZM2.61389 3.88406C2.33658 3.88406 2.11232 3.6593 2.11232 3.38249C2.11232 3.10466 2.33655 2.88043 2.61389 2.88043C2.89123 2.88043 3.11596 3.10466 3.11596 3.38249C3.11596 3.6593 2.89119 3.88406 2.61389 3.88406Z" fill="#212F36"/>
<path d="M16.5626 3.8351C16.5277 3.72742 16.5277 3.61087 16.5626 3.50265L17.0226 2.07447C17.0902 1.86426 17.0236 1.63431 16.8545 1.49229C16.6849 1.35077 16.4466 1.32633 16.252 1.42986L13.5439 2.87209C12.2089 1.90592 10.8775 1.2993 9.59605 0.966315C9.57577 0.709821 9.50654 0.381503 9.30675 0.131269C8.99249 -0.260515 7.00503 0.312843 6.03783 0.689543C5.51442 0.74262 5.01132 0.836254 4.53369 0.960089C5.05294 1.78681 5.35469 2.76494 5.35469 3.81279C5.35469 4.82525 5.07372 5.77321 4.5857 6.58225C5.29485 6.76226 6.0586 6.87414 6.86142 6.88922C6.89212 6.93604 6.93011 6.97923 6.9759 7.01565L8.043 7.86788C8.26985 8.04896 8.59917 8.01929 8.79014 7.80075L8.94257 7.62541C9.05599 7.49535 9.10074 7.31843 9.06225 7.14988C9.02425 6.98079 8.90721 6.84084 8.74851 6.77215L8.70429 6.7529C10.3005 6.48598 11.9961 5.81067 13.6954 4.54691L16.252 5.9085C16.4466 6.01202 16.6849 5.98758 16.8545 5.84553C17.0236 5.70402 17.0902 5.47353 17.0226 5.26385L16.5626 3.8351Z" fill="#212F36"/>
</svg>
