<svg width="13" height="12" viewBox="0 0 13 12" fill="none" xmlns="http://www.w3.org/2000/svg">
<path fill-rule="evenodd" clip-rule="evenodd" d="M5.89095 0.20914C6.22159 -0.0497953 6.68146 -0.0682908 7.03056 0.153654L7.10905 0.20914L9.91211 2.40421C10.1896 2.62156 10.3628 2.93945 10.3947 3.28267L10.4 3.39791V10.7274H11.05V5.31911C11.05 5.1629 11.165 5.03302 11.3166 5.00609L11.375 5.00096H11.7C12.3854 5.00096 12.9468 5.52008 12.9964 6.17855L13 6.27352V11.3001C13 11.6609 12.7211 11.9579 12.3629 11.9959L12.285 12H0.715C0.346444 12 0.0430148 11.727 0.00419556 11.3764L0 11.3001V6.27352C0 5.60264 0.53032 5.05303 1.20298 5.00445L1.3 5.00096H1.625C1.78455 5.00096 1.91725 5.11348 1.94476 5.26191L1.95 5.31911V10.7274H2.6V3.39791C2.6 3.04999 2.74541 2.71904 2.9993 2.48028L3.0879 2.40421L5.89095 0.20914ZM6.5 4.36469C5.78201 4.36469 5.2 4.93442 5.2 5.63725C5.2 6.34001 5.78201 6.9098 6.5 6.9098C7.21799 6.9098 7.8 6.34001 7.8 5.63725C7.8 4.93442 7.21799 4.36469 6.5 4.36469Z" fill="#212F36"/>
</svg>
