<svg width="16" height="9" viewBox="0 0 16 9" fill="none" xmlns="http://www.w3.org/2000/svg">
<path d="M14.908 6.69903C14.9078 6.69903 14.9078 6.69903 14.9077 6.69903C14.7891 6.69903 14.6643 6.69139 14.5335 6.67759C14.502 6.67425 14.4366 6.6715 14.4059 6.72423C13.9682 7.54346 13.2326 8.02967 12.3586 8.02967H3.64128C2.76731 8.02967 2.02366 7.52919 1.58579 6.70991C1.56187 6.67064 1.51326 6.6726 1.48903 6.67525C1.35002 6.69053 1.21746 6.69908 1.09217 6.69908C1.01087 6.69908 0.933593 6.69524 0.860065 6.68797C0.779038 6.67992 0.681641 6.68915 0.681641 6.74631C1.01526 8.07823 1.99709 8.95476 3.22041 8.95476H12.7796C14.0029 8.95476 15.0124 8.07256 15.3461 6.74078C15.3598 6.66657 15.2897 6.66807 15.2482 6.67434C15.1418 6.69043 15.0287 6.69899 14.908 6.69903Z" fill="#212F36"/>
<path d="M2.90851 1.20067C2.86805 1.13044 2.80193 1.16308 2.76347 1.18334C1.07082 2.07254 0 3.38502 0 4.84931C0 6.72372 1.75466 5.9745 4.32237 5.35587C4.35941 5.34695 4.42178 5.30392 4.39293 5.21809L2.90851 1.20067Z" fill="#212F36"/>
<path d="M8.64355 0.102612V4.80099C8.64355 4.86386 8.68699 4.8704 8.7089 4.87173C9.70125 4.93287 10.6416 5.1123 11.4967 5.31281C11.5357 5.32195 11.6124 5.33453 11.6459 5.26937L13.4245 1.39699C13.4606 1.32954 13.406 1.27481 13.376 1.25834C12.1294 0.572222 10.5242 0.121223 8.75083 0.0211739C8.71507 0.019162 8.64355 0.0211281 8.64355 0.102612Z" fill="#212F36"/>
<path d="M8.04894 0.0911327C8.04894 0.0155472 7.95662 -9.10549e-05 7.93504 3.97701e-07C6.30238 0.00786532 4.78664 0.312403 3.52629 0.828744C3.49099 0.843193 3.431 0.890383 3.45706 0.970267L4.99365 5.12885C5.0257 5.19913 5.09658 5.18111 5.1268 5.17475C6.0069 4.99176 6.97442 4.85138 7.97276 4.84635C7.99151 4.84626 8.04899 4.84662 8.04899 4.79518L8.04894 0.0911327Z" fill="#212F36"/>
<path d="M13.9241 1.7332C13.4372 2.64347 12.2218 5.43716 12.2218 5.43716C12.2031 5.47919 12.2472 5.49748 12.2703 5.50342C14.5117 6.07628 16.0002 6.57561 16.0002 4.84922C16.0002 3.64154 15.2715 2.53725 14.0669 1.68839C14.0362 1.66703 13.9616 1.66305 13.9241 1.7332Z" fill="#212F36"/>
</svg>
