<svg width="13" height="12" viewBox="0 0 13 12" fill="none" xmlns="http://www.w3.org/2000/svg">
<path d="M12.733 4.13459H11.7254C11.1125 1.75801 8.96153 0.000274712 6.39329 0C3.82506 0.000274712 1.67407 1.75801 1.06116 4.13459H0.0536153C0.0536153 4.13459 -0.677219 7.67428 3.25763 10.0441C3.50662 10.2167 3.77179 10.3661 4.0482 10.4963L3.91254 11.9903H8.87404L8.73836 10.4963C9.0148 10.3661 9.27997 10.2167 9.52896 10.0441C13.4638 7.67428 12.733 4.13459 12.733 4.13459ZM6.39329 4.13459H2.20568C2.42346 3.47189 2.79197 2.87778 3.27486 2.39434C4.0746 1.59515 5.17365 1.10284 6.39329 1.10257C7.61294 1.10284 8.71199 1.59515 9.51172 2.39434C9.99462 2.87778 10.3631 3.47186 10.5809 4.13459H6.39329Z" fill="#212F36"/>
</svg>
