<svg width="18" height="18" viewBox="0 0 18 18" fill="none" xmlns="http://www.w3.org/2000/svg">
<path d="M6.86328 10.8652C8.05631 10.8652 9.02344 9.8981 9.02344 8.70508C9.02344 7.51206 8.05631 6.54492 6.86328 6.54492C5.67026 6.54492 4.70312 7.51206 4.70312 8.70508C4.70312 9.8981 5.67026 10.8652 6.86328 10.8652Z" stroke="#525252" stroke-width="1.5" stroke-linecap="round" stroke-linejoin="round"/>
<path d="M12.2447 11.1669C11.0749 14.3041 8.09054 17.0373 6.86329 17.0373C5.32032 17.0373 1 12.7169 1 8.70521C1 5.46701 3.62509 2.84192 6.86329 2.84192C7.04621 2.84192 7.22718 2.8503 7.40583 2.86669" stroke="#525252" stroke-width="1.5" stroke-linecap="round" stroke-linejoin="round"/>
<path d="M9.85898 5.0306C9.44707 4.95895 9.44707 4.36763 9.85898 4.29598C11.3512 4.03636 12.5381 2.89975 12.8621 1.42011L12.8869 1.30669C12.976 0.899597 13.5557 0.897062 13.6482 1.30336L13.6785 1.43554C14.0144 2.90819 15.2016 4.03521 16.6896 4.2941C17.1036 4.36612 17.1036 4.96045 16.6896 5.03248C15.2016 5.29136 14.0144 6.41839 13.6785 7.89104L13.6482 8.02321C13.5557 8.42952 12.976 8.42698 12.8869 8.01989L12.8621 7.90646C12.5381 6.42683 11.3512 5.29022 9.85898 5.0306Z" stroke="#525252" stroke-width="1.5" stroke-linecap="round" stroke-linejoin="round"/>
</svg>
