<svg width="42" height="56" viewBox="0 0 42 56" fill="none" xmlns="http://www.w3.org/2000/svg">
<path d="M19.7027 52.5091C19.9728 53.4875 21.3603 53.4875 21.6305 52.5091L26.6678 34.2662C26.8437 33.6293 26.3646 33 25.7039 33H15.6293C14.9686 33 14.4895 33.6293 14.6654 34.2662L19.7027 52.5091Z" fill="#212F36"/>
<circle cx="20.6667" cy="20.6667" r="20.6667" fill="#212F36"/>
<circle cx="20.6667" cy="20.6667" r="16.6667" fill="#212F36"/>
<g clip-path="url(#clip0_272_538)">
<path d="M20.625 36.75C29.5998 36.75 36.875 29.4748 36.875 20.5C36.875 11.5254 29.5998 4.25 20.625 4.25C11.6504 4.25 4.375 11.5254 4.375 20.5C4.375 29.4748 11.6504 36.75 20.625 36.75Z" fill="#212F36" stroke="#212F36" stroke-linecap="round" stroke-linejoin="round"/>
<path d="M10 30.9966C11.1156 29.1653 12.6835 27.6518 14.553 26.6018C16.4225 25.5515 18.5307 24.9999 20.675 24.9999C22.8193 24.9999 24.9275 25.5515 26.797 26.6018C28.6665 27.6518 30.2343 29.1653 31.35 30.9966" fill="white"/>
<path d="M20.5 23C24.0898 23 27 20.0898 27 16.5C27 12.9102 24.0898 10 20.5 10C16.9102 10 14 12.9102 14 16.5C14 20.0898 16.9102 23 20.5 23Z" fill="white" stroke="white" stroke-linecap="round" stroke-linejoin="round"/>
</g>
<defs>
<clipPath id="clip0_272_538">
<rect width="35" height="35" fill="white" transform="translate(3.125 3)"/>
</clipPath>
</defs>
</svg>
