<svg width="22" height="22" viewBox="0 0 22 22" fill="none" xmlns="http://www.w3.org/2000/svg">
<path d="M17.9231 7.92308C17.9231 12.5385 11 17.9231 11 17.9231C11 17.9231 4.0769 12.5385 4.0769 7.92308C4.0769 4.15231 7.22921 1 11 1C14.7708 1 17.9231 4.15231 17.9231 7.92308Z" stroke="#313D46" stroke-linecap="round" stroke-linejoin="round"/>
<path d="M11.0001 10.2307C12.2746 10.2307 13.3078 9.19756 13.3078 7.92305C13.3078 6.64854 12.2746 5.61536 11.0001 5.61536C9.72557 5.61536 8.69238 6.64854 8.69238 7.92305C8.69238 9.19756 9.72557 10.2307 11.0001 10.2307Z" stroke="#313D46" stroke-linecap="round" stroke-linejoin="round"/>
<path d="M17.2728 15.6154H18.6923L21 21H1L3.30769 15.6154H4.72723" stroke="#313D46" stroke-linecap="round" stroke-linejoin="round"/>
</svg>
