<svg width="11" height="12" viewBox="0 0 11 12" fill="none" xmlns="http://www.w3.org/2000/svg">
<path d="M4.33333 5.97774L9.99998 3.97852V7.30242C9.66325 7.11228 9.26286 7.002 8.83331 7.002C7.63669 7.002 6.66667 7.8576 6.66667 8.913C6.66667 9.9684 7.63669 10.824 8.83331 10.824C10.0299 10.824 11 9.9684 11 8.913V3.29542C11 2.62343 11 2.05986 10.9464 1.61083C10.9388 1.54737 10.9298 1.48428 10.9199 1.42541C10.8683 1.11865 10.7771 0.83247 10.6009 0.593502C10.5128 0.474012 10.4036 0.36633 10.2674 0.273768C10.2419 0.256416 10.2153 0.239592 10.1879 0.22332L10.1824 0.220074C9.71092 -0.056682 9.18091 -0.0368881 8.63488 0.0858299C8.10682 0.204516 7.45213 0.446208 6.64938 0.742578L5.25329 1.25794C4.87703 1.39684 4.55822 1.51451 4.30797 1.6364C4.04174 1.76609 3.81241 1.91904 3.64043 2.14697C3.46845 2.3749 3.39702 2.62054 3.36417 2.88722C3.33331 3.13787 3.33332 3.44268 3.33334 3.80246V8.47842C2.99656 8.28828 2.59621 8.178 2.16666 8.178C0.970047 8.178 0 9.0336 0 10.089C0 11.1444 0.970047 12 2.16666 12C3.36328 12 4.33333 11.1444 4.33333 10.089V5.97774Z" fill="#1C274C"/>
</svg>
