<svg width="15" height="16" viewBox="0 0 15 16" fill="none" xmlns="http://www.w3.org/2000/svg">
<path d="M2 13H13C13.5523 13 14 12.5523 14 12V4C14 3.44771 13.5523 3 13 3H2C1.44771 3 1 3.44771 1 4V12C1 12.5523 1.44771 13 2 13Z" stroke="#ADADAD" stroke-linecap="round" stroke-linejoin="round"/>
<path d="M10.0019 7.21206C10.6896 7.21206 11.2471 6.65457 11.2471 5.96687C11.2471 5.27917 10.6896 4.72168 10.0019 4.72168C9.31421 4.72168 8.75671 5.27917 8.75671 5.96687C8.75671 6.65457 9.31421 7.21206 10.0019 7.21206Z" stroke="#ADADAD" stroke-linecap="round" stroke-linejoin="round"/>
<path d="M9.58269 13.0001C9.27218 11.3462 8.38415 9.85646 7.07706 8.79666C5.76997 7.73685 4.12885 7.17593 2.44652 7.21397C1.96114 7.21268 1.47675 7.25789 1 7.34898" stroke="#ADADAD" stroke-linecap="round" stroke-linejoin="round"/>
<path d="M14 9.94077C13.2123 9.67478 12.3865 9.53934 11.5551 9.53981C10.5028 9.53753 9.46111 9.75052 8.49414 10.1657" stroke="#ADADAD" stroke-linecap="round" stroke-linejoin="round"/>
<path d="M1 15L13 1" stroke="#ADADAD"/>
</svg>
