<svg width="15" height="15" viewBox="0 0 15 15" fill="none" xmlns="http://www.w3.org/2000/svg">
<path d="M14.174 12.5727V10.8621H12.0909H10.0084V12.5727L9.18994 12.9449V13.5398H12.0909H14.9922V12.9449L14.174 12.5727ZM13.4299 12.5727H12.0909H10.7522V11.9032H12.0909H13.4299V12.5727Z" fill="#212F36" stroke="black" stroke-width="0.00064"/>
<path d="M10.1265 13.8374H9.45703V14.9531H10.1265V13.8374Z" fill="#212F36" stroke="black" stroke-width="0.00064"/>
<path d="M14.7252 13.8374H14.0557V14.9531H14.7252V13.8374Z" fill="#212F36" stroke="black" stroke-width="0.00064"/>
<path d="M13.6136 13.8374H12.9438V14.4506H13.6136V13.8374Z" fill="#212F36" stroke="black" stroke-width="0.00064"/>
<path d="M11.2379 13.8374H10.5684V14.4506H11.2379V13.8374Z" fill="#212F36" stroke="black" stroke-width="0.00064"/>
<path d="M10.3791 9.55986C11.4734 9.14523 12.2528 8.09056 12.2528 6.85101C12.2528 6.0651 11.9389 5.35347 11.431 4.83149C11.4494 4.69416 11.4624 4.55566 11.4624 4.41353C11.4624 2.83232 10.2757 1.53005 8.74483 1.34294C7.97525 0.518606 6.88211 0 5.6652 0C3.33678 0 1.4492 1.88752 1.4492 4.21596C1.4492 4.22841 1.4509 4.24027 1.4509 4.25242C0.575676 4.84449 0 5.84633 0 6.98272C0 8.54077 1.08295 9.84301 2.5364 10.1855C2.83118 10.9065 3.53827 11.4152 4.36548 11.4152C4.67378 11.4152 4.96431 11.3425 5.2243 11.2168V14.9531H7.48856V12.5001L8.37172 10.9915C9.27553 10.9257 10.0391 10.3559 10.3791 9.55986ZM6.26122 9.99477C6.28017 10.0219 6.30052 10.0482 6.32087 10.0745L6.22055 10.1152C6.23493 10.0753 6.24904 10.0355 6.26122 9.99477ZM6.96972 11.84V10.6549C7.17944 10.7821 7.41003 10.8782 7.65591 10.9356L6.96972 11.84Z" fill="#212F36" stroke="black" stroke-width="0.00064"/>
</svg>
