<svg width="14" height="14" viewBox="0 0 14 14" fill="none" xmlns="http://www.w3.org/2000/svg">
<path d="M5.24782 12.9819C4.63328 13.3783 3.90097 13.5511 3.17402 13.4712C2.44708 13.3912 1.76983 13.0634 1.25617 12.5428L0.807105 12.1037C0.610232 11.9023 0.5 11.6319 0.5 11.3503C0.5 11.0687 0.610232 10.7982 0.807105 10.5969L2.71312 8.71085C2.91281 8.51461 3.18158 8.40465 3.46156 8.40465C3.74153 8.40465 4.01031 8.51461 4.20999 8.71085C4.41136 8.90773 4.6818 9.01796 4.96342 9.01796C5.24504 9.01796 5.51547 8.90773 5.71684 8.71085L8.71058 5.71711C8.81045 5.61869 8.88976 5.5014 8.94389 5.37206C8.99802 5.24272 9.0259 5.1039 9.0259 4.96369C9.0259 4.82347 8.99802 4.68466 8.94389 4.55531C8.88976 4.42597 8.81045 4.30868 8.71058 4.21026C8.51434 4.01058 8.40438 3.7418 8.40438 3.46183C8.40438 3.18185 8.51434 2.91308 8.71058 2.71339L10.6066 0.817359C10.808 0.620485 11.0784 0.510254 11.36 0.510254C11.6417 0.510254 11.9121 0.620485 12.1135 0.817359L12.5526 1.26642C13.0731 1.78008 13.4009 2.45733 13.4809 3.18427C13.5609 3.91122 13.3881 4.64353 12.9916 5.25807C10.9259 8.30244 8.29751 10.924 5.24782 12.9819Z" fill="#212F36"/>
</svg>
