<svg width="11" height="15" viewBox="0 0 11 15" fill="none" xmlns="http://www.w3.org/2000/svg">
<path d="M2.11867 1.98377C2.1416 1.9766 2.15766 1.96654 2.16771 1.95301C2.17984 1.9366 2.18241 1.91028 2.18241 1.89109C2.18241 1.84584 2.16761 1.82478 2.15645 1.81291C2.15635 1.81291 2.12504 1.78442 1.98584 1.78442H1.90039V1.99968H1.98584C2.04029 1.99963 2.08499 1.99427 2.11867 1.98377Z" fill="#212F36"/>
<path d="M10.941 3.44424V0.499192C10.941 0.223535 10.7174 0 10.4418 0H0.558274C0.282617 0 0.059082 0.223535 0.059082 0.499192V3.44424H10.941ZM8.28514 1.64657C8.28514 1.59172 8.29393 1.54621 8.31216 1.50737C8.33388 1.46106 8.36989 1.4254 8.41631 1.40429C8.45454 1.38672 8.49949 1.37813 8.55353 1.37813H9.27969C9.34898 1.37813 9.40454 1.39667 9.44474 1.43338C9.48691 1.47192 9.50918 1.52384 9.50918 1.58359C9.50918 1.64399 9.48681 1.69631 9.44454 1.73475C9.40474 1.77126 9.34913 1.7899 9.27969 1.7899H8.75989V1.92364H9.2306C9.29797 1.92364 9.35216 1.94187 9.39171 1.97778C9.43343 2.01591 9.45545 2.06722 9.45545 2.12626C9.45545 2.18455 9.43413 2.23571 9.39388 2.27404C9.35464 2.31162 9.29959 2.33076 9.2306 2.33076H8.75989V2.51732H9.301C9.36974 2.51732 9.42535 2.53626 9.46615 2.57359C9.50888 2.61268 9.53146 2.66586 9.53146 2.72732C9.53146 2.78758 9.50888 2.8401 9.46615 2.87924C9.42535 2.91657 9.36979 2.93556 9.301 2.93556H8.55353C8.4662 2.93556 8.39883 2.91212 8.35332 2.86601C8.30807 2.8204 8.28514 2.75343 8.28514 2.66712V1.64657ZM6.69151 1.83066C6.72807 1.73141 6.78136 1.6451 6.84999 1.57399C6.91873 1.50273 7.0005 1.44763 7.09292 1.4104C7.18428 1.37359 7.28252 1.35495 7.38499 1.35495C7.51024 1.35495 7.62428 1.38076 7.72398 1.43167C7.82393 1.48278 7.90242 1.54793 7.95732 1.62535C8.01499 1.70687 8.04423 1.78788 8.04423 1.86606C8.04423 1.92253 8.02358 1.9747 7.98439 2.01712C7.94322 2.06177 7.88999 2.0854 7.83045 2.0854C7.76893 2.0854 7.71918 2.06773 7.68252 2.03293C7.65651 2.00838 7.63161 1.97283 7.60418 1.92116C7.5762 1.86854 7.54428 1.82965 7.50944 1.80571C7.47767 1.78389 7.43757 1.77323 7.38676 1.77323C7.30439 1.77323 7.24358 1.80192 7.19545 1.86364C7.14282 1.93106 7.11615 2.03343 7.11615 2.16798C7.11615 2.25965 7.12843 2.33525 7.15272 2.39253C7.17454 2.44409 7.20317 2.48056 7.24029 2.50424C7.27863 2.52864 7.32343 2.5405 7.37752 2.5405C7.43575 2.5405 7.48221 2.52737 7.51974 2.5004C7.55817 2.47288 7.58696 2.43172 7.60792 2.37449C7.62196 2.33136 7.64191 2.29187 7.666 2.26045C7.69136 2.22737 7.74029 2.18763 7.82858 2.18763C7.88711 2.18763 7.94029 2.20924 7.98242 2.2501C8.02535 2.29192 8.04787 2.34606 8.04787 2.40692C8.04787 2.46323 8.03444 2.52354 8.00812 2.58606C7.98211 2.64727 7.94186 2.70697 7.88827 2.76389C7.83317 2.82227 7.76302 2.86985 7.67964 2.90535C7.59646 2.94076 7.49974 2.95874 7.39237 2.95874C7.31363 2.95874 7.2403 2.95106 7.17449 2.93581C7.1061 2.92 7.04267 2.89475 6.9859 2.86076C6.92878 2.82641 6.8761 2.78126 6.82934 2.72651C6.78772 2.67697 6.75232 2.62177 6.72353 2.56162C6.69494 2.50212 6.67317 2.43768 6.65893 2.3701C6.64489 2.30379 6.63777 2.23268 6.63777 2.15869C6.63767 2.03813 6.6558 1.92778 6.69151 1.83066ZM5.91918 1.62146C5.91918 1.5405 5.94075 1.47571 5.98327 1.42919C6.02747 1.38061 6.08696 1.3549 6.15514 1.3549C6.22413 1.3549 6.28418 1.3801 6.32868 1.42783C6.37196 1.47429 6.39393 1.53939 6.39393 1.62141V2.69121C6.39393 2.77298 6.37211 2.83818 6.32903 2.8849C6.28459 2.93313 6.22449 2.95869 6.15519 2.95869C6.08762 2.95869 6.02827 2.93283 5.98368 2.88399C5.9409 2.83702 5.91923 2.77222 5.91923 2.69126V1.62146H5.91918ZM4.56706 1.62146C4.56706 1.54066 4.58833 1.47611 4.63029 1.42955C4.67408 1.38081 4.73388 1.3549 4.80307 1.3549C4.87201 1.3549 4.93206 1.3801 4.97656 1.42783C5.01984 1.47429 5.04181 1.53939 5.04181 1.62141V2.50985H5.49954C5.56939 2.50985 5.62646 2.52955 5.66903 2.56823C5.71373 2.60894 5.73737 2.66263 5.73737 2.72359C5.73737 2.78571 5.71353 2.83965 5.66848 2.87949C5.62615 2.91667 5.56934 2.9355 5.49954 2.9355H4.8355C4.74817 2.9355 4.6808 2.91207 4.63529 2.86596C4.59004 2.82035 4.56706 2.75338 4.56706 2.66707V1.62146ZM2.86817 1.83354C2.90252 1.73359 2.95343 1.64687 3.01954 1.57576C3.0861 1.50414 3.16802 1.44859 3.26307 1.41071C3.3562 1.37374 3.46206 1.35495 3.57787 1.35495C3.7354 1.35495 3.87393 1.38808 3.98964 1.45354C4.10797 1.5205 4.19863 1.61687 4.25923 1.73995C4.31772 1.85859 4.34731 1.99818 4.34731 2.155C4.34731 2.2701 4.3313 2.37692 4.29969 2.47253C4.26706 2.57121 4.21711 2.65823 4.15125 2.73121C4.08444 2.80535 4.00161 2.86263 3.90514 2.90151C3.81085 2.93949 3.70257 2.95874 3.58348 2.95874C3.46459 2.95874 3.35595 2.93894 3.26045 2.8999C3.16282 2.86015 3.07984 2.80268 3.01383 2.72934C2.94853 2.65687 2.89873 2.56909 2.86575 2.46848C2.83393 2.37141 2.81777 2.2653 2.81777 2.15318C2.81777 2.03813 2.83474 1.93066 2.86817 1.83354ZM1.42585 1.64657C1.42585 1.55753 1.4506 1.48934 1.49928 1.44389C1.54605 1.40025 1.61353 1.37813 1.69984 1.37813H2.05272C2.16736 1.37813 2.25509 1.38722 2.32095 1.40606C2.39024 1.4253 2.45196 1.45833 2.50373 1.50414C2.5556 1.5502 2.5955 1.60692 2.62226 1.67293C2.64797 1.73667 2.66105 1.80818 2.66105 1.88545C2.66105 2.05414 2.606 2.18566 2.49747 2.27646C2.39428 2.36288 2.24469 2.40672 2.05277 2.40672H1.90065V2.69126C1.90065 2.77172 1.87878 2.83641 1.83565 2.88369C1.7907 2.93278 1.7313 2.95874 1.66378 2.95874C1.59403 2.95874 1.53383 2.93268 1.48949 2.88354C1.44737 2.83682 1.4259 2.77278 1.4259 2.69313L1.42585 1.64657Z" fill="#212F36"/>
<path d="M5.97431 12.3794H5.02588V15.0001H5.97431V12.3794Z" fill="#212F36"/>
<path d="M3.50356 5.77783H2.55518V6.72622H3.50356V5.77783Z" fill="#212F36"/>
<path d="M3.50356 9.08484H2.55518V10.0333H3.50356V9.08484Z" fill="#212F36"/>
<path d="M8.44497 5.77783H7.49658V6.72622H8.44497V5.77783Z" fill="#212F36"/>
<path d="M0.059082 4.14307V14.5008C0.059082 14.7765 0.282617 15 0.558274 15H4.32696V12.0299C4.32696 11.837 4.48342 11.6805 4.6764 11.6805H6.32363C6.51661 11.6805 6.67307 11.837 6.67307 12.0299V15H10.4418C10.7174 15 10.9409 14.7765 10.9409 14.5008V4.14307H0.059082ZM4.20216 10.3827C4.20216 10.5756 4.0457 10.7321 3.85277 10.7321H2.2055C2.01252 10.7321 1.8561 10.5756 1.8561 10.3827V8.73544C1.8561 8.54246 2.01252 8.386 2.2055 8.386H3.85277C4.0457 8.386 4.20216 8.54246 4.20216 8.73544V10.3827ZM4.20216 7.07569C4.20216 7.26867 4.0457 7.42514 3.85277 7.42514H2.2055C2.01252 7.42514 1.8561 7.26867 1.8561 7.07569V5.42847C1.8561 5.23549 2.01252 5.07903 2.2055 5.07903H3.85277C4.0457 5.07903 4.20216 5.23549 4.20216 5.42847V7.07569ZM9.14388 10.3827C9.14388 10.5756 8.98747 10.7321 8.79449 10.7321H7.14721C6.95423 10.7321 6.79782 10.5756 6.79782 10.3827V8.73544C6.79782 8.54246 6.95423 8.386 7.14721 8.386H8.79449C8.98747 8.386 9.14388 8.54246 9.14388 8.73544V10.3827ZM9.14388 7.07569C9.14388 7.26867 8.98747 7.42514 8.79449 7.42514H7.14721C6.95423 7.42514 6.79782 7.26867 6.79782 7.07569V5.42847C6.79782 5.23549 6.95423 5.07903 7.14721 5.07903H8.79449C8.98747 5.07903 9.14388 5.23549 9.14388 5.42847V7.07569Z" fill="#212F36"/>
<path d="M3.38361 2.45233C3.40952 2.48233 3.4381 2.50405 3.47078 2.5185C3.50422 2.53329 3.54053 2.54052 3.58174 2.54052C3.63432 2.54052 3.68108 2.52784 3.72467 2.50178C3.76664 2.47673 3.79992 2.43749 3.82644 2.38173C3.85477 2.32203 3.86911 2.24511 3.86911 2.15319C3.86911 2.06824 3.85573 1.99481 3.82942 1.93501C3.80528 1.88037 3.77285 1.84077 3.73017 1.814C3.68644 1.78658 3.63664 1.77319 3.57805 1.77319C3.53684 1.77319 3.50028 1.78057 3.46629 1.79562C3.43315 1.81037 3.40538 1.83117 3.38129 1.85946C3.35649 1.88855 3.33613 1.92779 3.32093 1.97617C3.30462 2.02759 3.29639 2.08703 3.29639 2.15314C3.29639 2.21996 3.30467 2.28037 3.32103 2.33269C3.33618 2.38163 3.35725 2.42183 3.38361 2.45233Z" fill="#212F36"/>
<path d="M8.44497 9.08484H7.49658V10.0333H8.44497V9.08484Z" fill="#212F36"/>
</svg>
