<svg width="31" height="42" viewBox="0 0 31 42" fill="none" xmlns="http://www.w3.org/2000/svg">
<path d="M14.5361 38.5091C14.8062 39.4875 16.1938 39.4875 16.4639 38.5091L19.9135 26.0162C20.0894 25.3793 19.6103 24.75 18.9496 24.75H12.0504C11.3897 24.75 10.9106 25.3793 11.0865 26.0162L14.5361 38.5091Z" fill="#212F36"/>
<circle cx="15.5" cy="15.5" r="15.5" fill="#212F36"/>
<circle cx="15.5" cy="15.5" r="12.5" fill="white"/>
<path d="M19.5999 15C20.9254 15 21.9999 13.6568 21.9999 12C21.9999 10.3432 20.9254 9 19.5999 9C18.2745 9 17.2 10.3432 17.2 12C17.2 13.6568 18.2745 15 19.5999 15Z" fill="#E8E8E8" stroke="#212F36" stroke-linecap="round" stroke-linejoin="round"/>
<path d="M19.6001 15V22" stroke="#212F36" stroke-linecap="round" stroke-linejoin="round"/>
<path d="M12.5 9V22" stroke="#212F36" stroke-linecap="round" stroke-linejoin="round"/>
<path d="M15 9V11.5C15 11.8283 14.9353 12.1534 14.8097 12.4567C14.6841 12.76 14.4999 13.0356 14.2678 13.2678C14.0356 13.4999 13.76 13.6841 13.4567 13.8097C13.1534 13.9353 12.8283 14 12.5 14C11.837 14 11.2011 13.7366 10.7322 13.2678C10.2634 12.7989 10 12.163 10 11.5V9" stroke="#212F36" stroke-linecap="round" stroke-linejoin="round"/>
</svg>
