<svg width="31" height="31" viewBox="0 0 31 31" fill="none" xmlns="http://www.w3.org/2000/svg">
<circle cx="15.5" cy="15.5" r="15.5" fill="#212F36"/>
<circle cx="15.5" cy="15.5" r="12.5" fill="white"/>
<path d="M11.8911 16.1301H18.9282V20.8401H11.8911V16.1301Z" fill="#A2ABC9" stroke="black" stroke-linecap="round" stroke-linejoin="round"/>
<path d="M13.478 13.429H17.2883H13.478Z" fill="#A2ABC9"/>
<path d="M13.478 13.429H17.2883" stroke="black" stroke-linecap="round" stroke-linejoin="round"/>
<path d="M14.3525 19.0791C14.3525 18.4951 14.826 18.0217 15.41 18.0217C15.994 18.0217 16.4675 18.4951 16.4675 19.0791V20.8403H14.3525V19.0791Z" fill="#A2ABC9" stroke="black" stroke-linecap="round" stroke-linejoin="round"/>
<path d="M13.4771 16.1302L13.4771 13.4197L15.3864 10.4822L17.2958 13.4197L17.2958 16.1302" fill="#A2ABC9"/>
<path d="M13.4771 16.1302L13.4771 13.4197L15.3864 10.4822L17.2958 13.4197L17.2958 16.1302" stroke="black" stroke-linecap="round" stroke-linejoin="round"/>
<path d="M9 14.1615V20.8402H11.8912V14.1615L10.4456 11.9631L9 14.1615Z" fill="#A2ABC9" stroke="black" stroke-linecap="round" stroke-linejoin="round"/>
<path d="M18.9282 14.1615V20.8402H21.8194V14.1615L20.3738 11.9631L18.9282 14.1615Z" fill="#A2ABC9" stroke="black" stroke-linecap="round" stroke-linejoin="round"/>
<path d="M15.3868 10.4821L15.3867 8L16.6371 8" fill="#A2ABC9"/>
<path d="M15.3868 10.4821L15.3867 8L16.6371 8" stroke="black" stroke-linecap="round" stroke-linejoin="round"/>
<path d="M13 14H17" stroke="black" stroke-width="0.7"/>
<circle cx="15.5" cy="15.5" r="15.5" fill="#212F36"/>
<circle cx="15.5" cy="15.5" r="12.5" fill="white"/>
<path d="M21.7662 19.89C21.782 20.0303 21.7678 20.1723 21.7247 20.3068C21.6816 20.4412 21.6106 20.565 21.5162 20.67C21.4216 20.7748 21.3058 20.8585 21.1766 20.9153C21.0473 20.9722 20.9074 21.0011 20.7662 21H11.0062C10.865 21.0011 10.7252 20.9722 10.5959 20.9153C10.4666 20.8585 10.3509 20.7748 10.2562 20.67C10.1619 20.565 10.0908 20.4412 10.0477 20.3068C10.0046 20.1723 9.99049 20.0303 10.0062 19.89L10.8862 12H20.8862L21.7662 19.89Z" fill="#6D6E71" stroke="black" stroke-linecap="round" stroke-linejoin="round"/>
<path d="M13.3862 12V10.5C13.3862 9.83696 13.6496 9.20107 14.1185 8.73223C14.5873 8.26339 15.2232 8 15.8862 8C16.5493 8 17.1852 8.26339 17.654 8.73223C18.1228 9.20107 18.3862 9.83696 18.3862 10.5V12" stroke="black" stroke-linecap="round" stroke-linejoin="round"/>
<circle cx="15.5" cy="15.5" r="15.5" fill="#212F36"/>
<circle cx="15.5" cy="15.5" r="12.5" fill="white"/>
<path d="M12.7857 22V19.3975C11.1204 18.4342 10 16.6336 10 14.5714C10 11.4944 12.4944 9 15.5714 9C17.6336 9 19.4342 10.1204 20.3975 11.7857" stroke="black" stroke-linecap="round" stroke-linejoin="round"/>
<path d="M18.3574 22.0001V19.6787H20.2145C20.7274 19.6787 21.1431 19.263 21.1431 18.7501V16.4287" stroke="black" stroke-linecap="round" stroke-linejoin="round"/>
<path d="M15.1061 14.1072H10.0181" stroke="black" stroke-linecap="round" stroke-linejoin="round"/>
<path d="M15.1074 14.1071C15.1074 12.825 16.1468 11.7856 17.4289 11.7856H22.0002C22.5525 11.7856 23.0002 12.2334 23.0002 12.7856V15.4285C23.0002 15.9808 22.5525 16.4285 22.0002 16.4285H17.4289C16.1468 16.4285 15.1074 15.3892 15.1074 14.1071Z" fill="#E76F00" fill-opacity="0.57" stroke="black" stroke-linecap="round" stroke-linejoin="round"/>
<path d="M18.8213 11.7856V16.4285" stroke="black" stroke-linecap="round" stroke-linejoin="round"/>
<circle cx="15.5" cy="15.5" r="15.5" fill="#212F36"/>
<circle cx="15.5" cy="15.5" r="12.5" fill="white"/>
<path d="M19.6002 15C20.9257 15 22.0002 13.6568 22.0002 12C22.0002 10.3432 20.9257 9 19.6002 9C18.2747 9 17.2002 10.3432 17.2002 12C17.2002 13.6568 18.2747 15 19.6002 15Z" fill="#E8E8E8" stroke="#212F36" stroke-linecap="round" stroke-linejoin="round"/>
<path d="M19.6001 15V22" stroke="#212F36" stroke-linecap="round" stroke-linejoin="round"/>
<path d="M12.5 9V22" stroke="#212F36" stroke-linecap="round" stroke-linejoin="round"/>
<path d="M15 9V11.5C15 11.8283 14.9353 12.1534 14.8097 12.4567C14.6841 12.76 14.4999 13.0356 14.2678 13.2678C14.0356 13.4999 13.76 13.6841 13.4567 13.8097C13.1534 13.9353 12.8283 14 12.5 14C11.837 14 11.2011 13.7366 10.7322 13.2678C10.2634 12.7989 10 12.163 10 11.5V9" stroke="#212F36" stroke-linecap="round" stroke-linejoin="round"/>
</svg>
