<svg width="31" height="42" viewBox="0 0 31 42" fill="none" xmlns="http://www.w3.org/2000/svg">
<path d="M14.5361 38.5091C14.8062 39.4875 16.1938 39.4875 16.4639 38.5091L19.9135 26.0162C20.0894 25.3793 19.6103 24.75 18.9496 24.75H12.0504C11.3897 24.75 10.9106 25.3793 11.0865 26.0162L14.5361 38.5091Z" fill="#212F36"/>
<circle cx="15.5" cy="15.5" r="15.5" fill="#212F36"/>
<circle cx="15.5" cy="15.5" r="12.5" fill="#E76F00"/>
<path d="M17.7115 21.75H9.25V11.7019L13.4808 8L17.7115 11.7019V21.75Z" fill="#E76F00" stroke="white" stroke-linecap="round" stroke-linejoin="round"/>
<path d="M17.7114 21.75H22.9999V14.3462H17.7114" fill="#E76F00"/>
<path d="M17.7114 21.75H22.9999V14.3462H17.7114" stroke="white" stroke-linecap="round" stroke-linejoin="round"/>
<path d="M13.4805 21.7499V19.6345Z" fill="#E76F00"/>
<path d="M13.4805 21.7499V19.6345" stroke="white" stroke-linecap="round" stroke-linejoin="round"/>
<path d="M11.8945 16.4614H15.0676Z" fill="#E76F00"/>
<path d="M11.8945 16.4614H15.0676" stroke="white" stroke-linecap="round" stroke-linejoin="round"/>
<path d="M11.8945 13.2886H15.0676Z" fill="#E76F00"/>
<path d="M11.8945 13.2886H15.0676" stroke="white" stroke-linecap="round" stroke-linejoin="round"/>
</svg>
