<svg width="21" height="21" viewBox="0 0 21 21" fill="none" xmlns="http://www.w3.org/2000/svg">
<g clip-path="url(#clip0_200_979)">
<path d="M9.75 18.75C14.7206 18.75 18.75 14.7206 18.75 9.75C18.75 4.77944 14.7206 0.75 9.75 0.75C4.77944 0.75 0.75 4.77944 0.75 9.75C0.75 14.7206 4.77944 18.75 9.75 18.75Z" stroke="#212F36" stroke-width="1.3" stroke-linecap="round" stroke-linejoin="round"/>
<path d="M16.1099 16.1104L20.2499 20.2504" stroke="#212F36" stroke-width="1.3" stroke-linecap="round" stroke-linejoin="round"/>
<path d="M5.17453 10.2422C4.62281 10.1462 4.62281 9.35418 5.17453 9.25819C7.17329 8.91046 8.76302 7.38805 9.19685 5.40621L9.23011 5.25429C9.34948 4.70902 10.1259 4.70563 10.25 5.24983L10.2904 5.42688C10.7403 7.39936 12.3304 8.90892 14.3236 9.25569C14.8782 9.35215 14.8782 10.1482 14.3236 10.2447C12.3304 10.5914 10.7403 12.101 10.2904 14.0735L10.25 14.2505C10.1259 14.7947 9.34948 14.7913 9.23011 14.2461L9.19685 14.0942C8.76302 12.1123 7.17329 10.5899 5.17453 10.2422Z" stroke="#212F36" stroke-width="1.3" stroke-linecap="round" stroke-linejoin="round"/>
</g>
<defs>
<clipPath id="clip0_200_979">
<rect width="21" height="21" fill="white"/>
</clipPath>
</defs>
</svg>
