<svg width="31" height="42" viewBox="0 0 31 42" fill="none" xmlns="http://www.w3.org/2000/svg">
<path d="M14.5361 38.5091C14.8062 39.4875 16.1938 39.4875 16.4639 38.5091L19.9135 26.0162C20.0894 25.3793 19.6103 24.75 18.9496 24.75H12.0504C11.3897 24.75 10.9106 25.3793 11.0865 26.0162L14.5361 38.5091Z" fill="#212F36"/>
<circle cx="15.5" cy="15.5" r="15.5" fill="#212F36"/>
<circle cx="15.5" cy="15.5" r="12.5" fill="white"/>
<path d="M21.7662 19.89C21.782 20.0303 21.7678 20.1723 21.7247 20.3068C21.6816 20.4412 21.6106 20.565 21.5162 20.67C21.4216 20.7748 21.3058 20.8585 21.1766 20.9153C21.0473 20.9722 20.9074 21.0011 20.7662 21H11.0062C10.865 21.0011 10.7252 20.9722 10.5959 20.9153C10.4666 20.8585 10.3509 20.7748 10.2562 20.67C10.1619 20.565 10.0908 20.4412 10.0477 20.3068C10.0046 20.1723 9.99049 20.0303 10.0062 19.89L10.8862 12H20.8862L21.7662 19.89Z" fill="#6D6E71" stroke="black" stroke-linecap="round" stroke-linejoin="round"/>
<path d="M13.3862 12V10.5C13.3862 9.83696 13.6496 9.20107 14.1185 8.73223C14.5873 8.26339 15.2232 8 15.8862 8C16.5493 8 17.1852 8.26339 17.654 8.73223C18.1228 9.20107 18.3862 9.83696 18.3862 10.5V12" stroke="black" stroke-linecap="round" stroke-linejoin="round"/>
</svg>
