<svg width="13" height="14" viewBox="0 0 13 14" fill="none" xmlns="http://www.w3.org/2000/svg">
<path d="M7.6167 7.33027C8.10678 8.08553 9.26926 8.3291 10.3121 7.86527C11.3549 7.40147 11.9065 6.3955 11.615 5.55188L7.6167 7.33027Z" fill="#212F36"/>
<path d="M1.24309 8.65706C1.92963 8.65706 2.48618 8.1262 2.48618 7.47135C2.48618 6.8165 1.92963 6.28564 1.24309 6.28564C0.556551 6.28564 0 6.8165 0 7.47135C0 8.1262 0.556551 8.65706 1.24309 8.65706Z" fill="#212F36"/>
<path d="M6.08074 12.2299L2.9143 8.20923C2.82447 8.39354 2.70229 8.56063 2.55446 8.70371L5.35316 12.2574C5.13842 12.2786 4.93098 12.3112 4.73308 12.3538L2.10881 9.02162C1.92477 9.11548 1.72222 9.18037 1.50781 9.20991L4.12121 12.5283C3.24514 12.8464 2.66862 13.3867 2.66862 13.9997H9.22582C9.22582 13.0456 7.82948 12.2678 6.08074 12.2299Z" fill="#212F36"/>
<path d="M5.72452 7.54123L13 4.30521C12.313 2.89996 11.0379 1.96453 9.6812 1.71168C8.95784 0.655912 7.97364 0 7.12364 0C6.91453 0 6.71366 0.0396856 6.52662 0.122857C5.57945 0.544141 5.29779 1.94496 5.77487 3.44913C5.10591 4.60298 5.03752 6.136 5.72452 7.54123Z" fill="#212F36"/>
<path d="M4.97873 2.59436L1.62305 5.75186C1.84084 5.7956 2.04441 5.8764 2.22662 5.98663L5.10568 3.27759C5.04718 3.04642 5.00488 2.81807 4.97873 2.59436Z" fill="#212F36"/>
<path d="M4.83621 4.13806L2.57812 6.26277C2.71807 6.40339 2.83387 6.56588 2.91927 6.74442L4.65609 5.1102C4.68239 4.7776 4.74311 4.45152 4.83621 4.13806Z" fill="#212F36"/>
</svg>
