<svg width="14" height="15" viewBox="0 0 14 15" fill="none" xmlns="http://www.w3.org/2000/svg">
<path d="M13.9839 14.0014L13.9797 6.98489C13.9797 3.1262 10.848 0 6.98984 0C3.13167 0 0 3.12844 0 6.98741L0.0562726 14.0112L1.6655 14.0073V6.98769C1.6655 3.9802 3.97856 1.54252 6.9848 1.54252C9.99161 1.54252 12.3041 3.98048 12.3041 6.98797V14.0014H13.9839ZM9.27966 11.4607L9.25391 11.4137L9.26735 11.3963L9.27966 11.3789C9.52043 11.2795 9.73908 11.1577 9.9345 11.0121C10.1299 10.866 10.2441 10.6521 10.3119 10.3693C10.3194 10.3365 10.3444 10.2603 10.3444 10.1441V4.30528C10.3444 4.16444 10.3194 4.01828 10.236 3.8696C10.1531 3.7184 10.0577 3.58316 9.93086 3.46304C9.80795 3.34404 9.67301 3.26116 9.51875 3.18136C9.36477 3.1024 9.22087 3.0814 9.07893 3.0814H4.90132C4.76805 3.0814 4.62471 3.10016 4.47017 3.1752C4.31591 3.24996 4.17397 3.33676 4.04575 3.4538C3.91725 3.56944 3.82234 3.696 3.73891 3.84076C3.6566 3.98832 3.62524 4.1258 3.62524 4.2686V10.1945C3.62524 10.2934 3.64036 10.3984 3.68908 10.5053C3.73919 10.6143 3.79574 10.7159 3.87049 10.81C3.94552 10.9074 4.02419 10.9951 4.11182 11.0735C4.19917 11.1524 4.28204 11.2168 4.36603 11.2661C4.40662 11.2832 4.47885 11.3092 4.58356 11.342C4.68687 11.3753 4.73446 11.3952 4.72662 11.4109L3.01744 14.0014H4.01439L5.26247 12.3214H8.70658L9.95298 14.0014H10.9625L9.27966 11.4607ZM5.58499 3.6414C5.58499 3.4874 5.71097 3.3614 5.86495 3.3614H8.10466C8.25864 3.3614 8.38462 3.4874 8.38462 3.6414V3.9214C8.38462 4.0754 8.25864 4.2014 8.10466 4.2014H5.86495C5.71097 4.2014 5.58499 4.0754 5.58499 3.9214V3.6414ZM4.48305 5.0092C4.52029 4.93024 4.5494 4.85856 4.60736 4.79108C4.66643 4.72444 4.7255 4.62868 4.80417 4.58696C4.88284 4.54496 4.95535 4.4814 5.0385 4.4814H8.91795C8.9927 4.4814 9.06689 4.5416 9.1422 4.57324C9.21723 4.60684 9.28554 4.67488 9.34853 4.73256C9.41069 4.79052 9.43532 4.86472 9.47396 4.93108C9.51063 4.99604 9.50447 5.07836 9.50447 5.15312V6.47585C9.50447 6.55145 9.50811 6.62173 9.46724 6.69285C9.4258 6.76565 9.38381 6.82837 9.31662 6.88241C9.24971 6.93533 9.18616 6.94905 9.11141 6.98125C9.03638 7.01653 8.9675 7.00141 8.89359 7.00141H5.06342C5.05418 7.00141 5.03346 7.02745 5.00042 7.02073L4.92483 7.00981C4.78401 6.98517 4.6975 6.91769 4.58888 6.79281C4.48109 6.66709 4.46513 6.53885 4.46513 6.38877V5.25364C4.46513 5.17048 4.4461 5.08872 4.48305 5.0092ZM5.54327 10.4062C5.41477 10.5392 5.25379 10.6056 5.06342 10.6056C4.8722 10.6056 4.71598 10.5392 4.59504 10.4062C4.47409 10.2735 4.41418 10.11 4.41418 9.91929C4.41418 9.74457 4.47717 9.59309 4.60148 9.46457C4.72606 9.33521 4.88032 9.27053 5.06342 9.27053C5.25379 9.27053 5.41449 9.33185 5.54327 9.45057C5.67234 9.57321 5.73701 9.73113 5.73701 9.93245C5.73701 10.1156 5.67234 10.2738 5.54327 10.4062ZM8.39974 10.4062C8.27151 10.2735 8.20684 10.11 8.20684 9.91929C8.20684 9.72721 8.27487 9.57293 8.41234 9.45029C8.55036 9.33157 8.70994 9.27025 8.89387 9.27025C9.08369 9.27025 9.23991 9.33493 9.36029 9.46429C9.48152 9.59281 9.54199 9.74429 9.54199 9.91901C9.54199 10.11 9.48012 10.2735 9.35413 10.4059C9.22983 10.5389 9.07165 10.6053 8.88016 10.6053C8.68894 10.6056 8.52936 10.5392 8.39974 10.4062Z" fill="#212F36" stroke="#212F36" stroke-width="0.00064"/>
</svg>
