<svg width="31" height="42" viewBox="0 0 31 42" fill="none" xmlns="http://www.w3.org/2000/svg">
<path d="M14.5361 38.5091C14.8062 39.4875 16.1938 39.4875 16.4639 38.5091L19.9135 26.0162C20.0894 25.3793 19.6103 24.75 18.9496 24.75H12.0504C11.3897 24.75 10.9106 25.3793 11.0865 26.0162L14.5361 38.5091Z" fill="#212F36"/>
<circle cx="15.5" cy="15.5" r="15.5" fill="#212F36"/>
<circle cx="15.5" cy="15.5" r="12.5" fill="white"/>
<path d="M11.8911 16.1301H18.9282V20.8401H11.8911V16.1301Z" fill="#A2ABC9" stroke="black" stroke-linecap="round" stroke-linejoin="round"/>
<path d="M13.4783 13.429H17.2885Z" fill="#A2ABC9"/>
<path d="M13.4783 13.429H17.2885" stroke="black" stroke-linecap="round" stroke-linejoin="round"/>
<path d="M14.3523 19.0791C14.3523 18.4951 14.8257 18.0217 15.4098 18.0217C15.9938 18.0217 16.4672 18.4951 16.4672 19.0791V20.8403H14.3523V19.0791Z" fill="#A2ABC9" stroke="black" stroke-linecap="round" stroke-linejoin="round"/>
<path d="M13.4771 16.1302L13.4771 13.4197L15.3864 10.4822L17.2958 13.4197L17.2958 16.1302" fill="#A2ABC9"/>
<path d="M13.4771 16.1302L13.4771 13.4197L15.3864 10.4822L17.2958 13.4197L17.2958 16.1302" stroke="black" stroke-linecap="round" stroke-linejoin="round"/>
<path d="M9 14.1615V20.8402H11.8912V14.1615L10.4456 11.9631L9 14.1615Z" fill="#A2ABC9" stroke="black" stroke-linecap="round" stroke-linejoin="round"/>
<path d="M18.9282 14.1615V20.8402H21.8194V14.1615L20.3738 11.9631L18.9282 14.1615Z" fill="#A2ABC9" stroke="black" stroke-linecap="round" stroke-linejoin="round"/>
<path d="M15.3866 10.4821L15.3865 8L16.6369 8" fill="#A2ABC9"/>
<path d="M15.3866 10.4821L15.3865 8L16.6369 8" stroke="black" stroke-linecap="round" stroke-linejoin="round"/>
<path d="M13 14H17" stroke="black" stroke-width="0.7"/>
</svg>
