<svg width="13" height="13" viewBox="0 0 13 13" fill="none" xmlns="http://www.w3.org/2000/svg">
<path fill-rule="evenodd" clip-rule="evenodd" d="M1.17838 0C1.04195 0 0.920046 0.0946798 0.87317 0.237041L0.0395706 2.76871C0.0133936 2.84823 0 2.93219 0 3.01687V4.02383C0 4.59362 0.415736 5.05556 0.928572 5.05556C1.44141 5.05556 1.85716 4.59362 1.85716 4.02383C1.85716 4.59362 2.27287 5.05556 2.78572 5.05556C3.29853 5.05556 3.71428 4.59362 3.71428 4.02383C3.71428 4.59362 4.13003 5.05556 4.64284 5.05556C5.15544 5.05556 5.57101 4.59409 5.57144 4.02466C5.57184 4.59409 5.9874 5.05556 6.5 5.05556C7.01285 5.05556 7.42856 4.59362 7.42856 4.02383C7.42856 4.59362 7.84431 5.05556 8.35716 5.05556C8.86972 5.05556 9.28529 4.59409 9.28572 4.02466C9.28612 4.59409 9.70172 5.05556 10.2143 5.05556C10.7271 5.05556 11.1428 4.59362 11.1428 4.02383C11.1428 4.59362 11.5586 5.05556 12.0714 5.05556C12.5843 5.05556 13 4.59362 13 4.02383V3.01687C13 2.93219 12.9866 2.84823 12.9604 2.76871L12.1268 0.237041C12.08 0.0946762 11.9581 0 11.8216 0H1.17838Z" fill="#212F36"/>
<path fill-rule="evenodd" clip-rule="evenodd" d="M1.08355 5.58897V7.94446H0.541884C0.442166 7.94446 0.361328 8.02531 0.361328 8.12501V8.48612C0.361328 8.58583 0.442166 8.66668 0.541884 8.66668H12.4586C12.5583 8.66668 12.6391 8.58583 12.6391 8.48612V8.12501C12.6391 8.02531 12.5583 7.94446 12.4586 7.94446H11.9169V5.58897C11.6412 5.55921 11.3962 5.45066 11.1947 5.28906V7.94446H1.80577V5.28906C1.6042 5.45066 1.35922 5.55921 1.08355 5.58897ZM11.366 4.69446C11.4011 4.73999 11.4397 4.7821 11.4813 4.82027C11.6041 4.93268 11.7532 5.01079 11.9169 5.04131V4.69446H11.366ZM1.08355 5.04131V4.69446H1.63446C1.59936 4.73999 1.56076 4.7821 1.51912 4.82027C1.3964 4.93268 1.24723 5.01079 1.08355 5.04131ZM0.902995 9.02779C0.803278 9.02779 0.722439 9.10864 0.722439 9.20835V12.6389C0.722439 12.8383 0.884116 13 1.08355 13H11.9169C12.1163 13 12.278 12.8383 12.278 12.6389V9.20835C12.278 9.10864 12.1971 9.02779 12.0974 9.02779H0.902995Z" fill="#212F36"/>
<path d="M2.1665 7.04176C2.1665 6.94206 2.24736 6.86121 2.34706 6.86121H3.43039C3.5301 6.86121 3.61095 6.94206 3.61095 7.04176V7.76398C3.61095 7.86369 3.5301 7.94454 3.43039 7.94454H2.34706C2.24736 7.94454 2.1665 7.86369 2.1665 7.76398V7.04176Z" fill="#212F36"/>
<path d="M2.88867 7.40272C2.88867 7.30302 2.96952 7.22217 3.06923 7.22217H4.15256C4.25226 7.22217 4.33312 7.30302 4.33312 7.40272V7.76383C4.33312 7.86354 4.25226 7.94439 4.15256 7.94439H3.06923C2.96952 7.94439 2.88867 7.86354 2.88867 7.76383V7.40272Z" fill="#212F36"/>
<path d="M5.77816 7.40287C5.77816 7.70202 5.53564 7.94454 5.23649 7.94454C4.93735 7.94454 4.69482 7.70202 4.69482 7.40287C4.69482 7.10373 4.93735 6.86121 5.23649 6.86121C5.53564 6.86121 5.77816 7.10373 5.77816 7.40287Z" fill="#212F36"/>
</svg>
