<svg width="22" height="21" viewBox="0 0 22 21" fill="none" xmlns="http://www.w3.org/2000/svg">
<path d="M17.9231 4.95837H4.07692C2.37758 4.95837 1 6.37614 1 8.12504V16.8334C1 18.5823 2.37758 20 4.07692 20H17.9231C19.6225 20 21 18.5823 21 16.8334V8.12504C21 6.37614 19.6225 4.95837 17.9231 4.95837Z" stroke="#1E2E38" stroke-linecap="round" stroke-linejoin="round"/>
<path d="M6.38452 20V4.95837" stroke="#1E2E38" stroke-linecap="round" stroke-linejoin="round"/>
<path d="M15.6155 20V4.95837" stroke="#1E2E38" stroke-linecap="round" stroke-linejoin="round"/>
<path d="M7.15381 4.95833C7.15381 3.90852 7.55902 2.90169 8.28032 2.15936C9.00161 1.41703 9.9799 1 11 1C12.02 1 12.9983 1.41703 13.7196 2.15936C14.4409 2.90169 14.8461 3.90852 14.8461 4.95833" stroke="#1E2E38" stroke-linecap="round" stroke-linejoin="round"/>
</svg>
