<svg width="15" height="15" viewBox="0 0 15 15" fill="none" xmlns="http://www.w3.org/2000/svg">
<g clip-path="url(#clip0_200_687)">
<path d="M7.49993 14.4642C11.3463 14.4642 14.4642 11.3463 14.4642 7.49993C14.4642 3.65366 11.3463 0.535645 7.49993 0.535645C3.65366 0.535645 0.535645 3.65366 0.535645 7.49993C0.535645 11.3463 3.65366 14.4642 7.49993 14.4642Z" fill="#212F36" stroke="white" stroke-linecap="round" stroke-linejoin="round"/>
<path d="M0.535645 7.5H14.4642H0.535645Z" fill="#212F36"/>
<path d="M0.535645 7.5H14.4642" stroke="white" stroke-linecap="round" stroke-linejoin="round"/>
<path d="M10.1784 7.49993C10.0469 10.0467 9.1088 12.4856 7.49986 14.4642C5.89092 12.4856 4.95286 10.0467 4.82129 7.49993C4.95286 4.95316 5.89092 2.5142 7.49986 0.535645C9.1088 2.5142 10.0469 4.95316 10.1784 7.49993Z" fill="#212F36" stroke="white" stroke-linecap="round" stroke-linejoin="round"/>
<line x1="2" y1="7.5" x2="13" y2="7.5" stroke="white"/>
</g>
<defs>
<clipPath id="clip0_200_687">
<rect width="15" height="15" fill="white"/>
</clipPath>
</defs>
</svg>
