<svg width="14" height="14" viewBox="0 0 14 14" fill="none" xmlns="http://www.w3.org/2000/svg">
<g clip-path="url(#clip0_200_674)">
<path d="M4 13.5C5.933 13.5 7.5 11.933 7.5 10C7.5 8.067 5.933 6.5 4 6.5C2.067 6.5 0.5 8.067 0.5 10C0.5 11.933 2.067 13.5 4 13.5Z" stroke="#212F36" stroke-linecap="round" stroke-linejoin="round"/>
<path d="M4.2 6.51L3 0.5H0.5" stroke="#212F36" stroke-linecap="round" stroke-linejoin="round"/>
<path d="M7.46003 10.4997H11.9605L12.2266 11.4763L10.78 6.1697C10.7012 5.69828 10.4561 5.27068 10.0893 4.96433C9.72241 4.65799 9.25795 4.49316 8.78003 4.4997H3.78003" stroke="#212F36" stroke-linecap="round" stroke-linejoin="round"/>
<path d="M11.0801 8H6.87012" stroke="#212F36" stroke-linecap="round" stroke-linejoin="round"/>
<path d="M12.5 13.5C13.0523 13.5 13.5 13.0523 13.5 12.5C13.5 11.9477 13.0523 11.5 12.5 11.5C11.9477 11.5 11.5 11.9477 11.5 12.5C11.5 13.0523 11.9477 13.5 12.5 13.5Z" stroke="#212F36" stroke-linecap="round" stroke-linejoin="round"/>
</g>
<defs>
<clipPath id="clip0_200_674">
<rect width="14" height="14" fill="white"/>
</clipPath>
</defs>
</svg>
